# xmcd
#
# Track frame offsets:
#	150
#	14570
#	24914
#	40886
#	53843
#	66804
#	83074
#	96407
#	109250
#	118697
#	130602
#	143498
#	157386
#	165526
#
# Disc length: 2357 seconds
#
# Revision: 0
# Processed by: cddbd v1.5.2PL0 Copyright (c) Steve Scherf et al.
# Submitted via: dBpowerAMP V4.0
#
DISCID=b809330e
DTITLE=Various Artist - Mike Badger's Country Side
DYEAR=2008
DGENRE=Country
TTITLE0=The Onset - The Mystery of Life
TTITLE1=The Onset - Trees and Plants
TTITLE2=Mike Badger - Ashtrays and Tables and Barstools
TTITLE3=Mike Badger - The Cowboy and His wife (Original Version)
TTITLE4=Mike Badger - Clear Night For Love
TTITLE5=The Onset - Another Man's Crime
TTITLE6=Mike Badger - They're Animals
TTITLE7=Mike Badger - Two Times Forgotten Man
TTITLE8=Mike Badger - Waking Up In The City
TTITLE9=Mike Badger - Daddy's Inside
TTITLE10=Mike Badger - Some Things
TTITLE11=The Onset - Let's Go Home
TTITLE12=Mike Badger - Dig It!
TTITLE13=Mike Badger - A Mansion on the Hill
EXTD=
EXTT0=
EXTT1=
EXTT2=
EXTT3=
EXTT4=
EXTT5=
EXTT6=
EXTT7=
EXTT8=
EXTT9=
EXTT10=
EXTT11=
EXTT12=
EXTT13=
PLAYORDER=
